<svg xmlns="http://www.w3.org/2000/svg" viewBox="0 0 410 404" fill="none">
  <g clip-path="url(#clip0_3505_5)">
    <path d="M399.641 59.5246L215.643 388.545C212.218 394.735 203.498 394.727 200.084 388.531L10.343 59.5319C6.59175 52.7993 11.4162 44.2675 19.2529 44.2675H151.023C155.679 44.2675 159.358 48.0372 159.088 52.686L151.074 192.679C150.991 194.142 152.527 195.091 153.764 194.322L220.093 153.223C221.137 152.571 222.454 152.571 223.498 153.223L294.153 198.13C295.399 198.932 296.962 197.997 296.837 196.541L283.826 52.6519C283.431 48.0265 287.09 44.2675 291.713 44.2675H390.672C398.509 44.2675 403.333 52.7993 399.583 59.5319H399.641Z" fill="url(#paint0_linear_3505_5)"/>
    <path d="M278.456 4.22778L157.607 61.5563C155.085 62.7468 153.877 65.6008 154.926 68.1287L213.373 212.77C214.555 215.681 218.636 215.656 219.782 212.73L278.009 67.7808C279.025 65.1748 277.797 62.267 275.252 61.0752L235.408 42.6003C232.67 41.3215 232.588 37.539 235.26 36.1508L281.016 12.6083C286.116 9.94119 283.58 2.1549 278.456 4.22778Z" fill="url(#paint1_linear_3505_5)"/>
  </g>
  <defs>
    <linearGradient id="paint0_linear_3505_5" x1="6.00017" y1="32.9999" x2="235.014" y2="344.737" gradientUnits="userSpaceOnUse">
      <stop stop-color="#41D1FF"/>
      <stop offset="1" stop-color="#BD34FE"/>
    </linearGradient>
    <linearGradient id="paint1_linear_3505_5" x1="171.432" y1="18.7094" x2="235.672" y2="205.041" gradientUnits="userSpaceOnUse">
      <stop stop-color="#FFEA83"/>
      <stop offset="0.0833333" stop-color="#FFDD35"/>
      <stop offset="1" stop-color="#FFA800"/>
    </linearGradient>
    <clipPath id="clip0_3505_5">
      <rect width="410" height="404" fill="white"/>
    </clipPath>
  </defs>
</svg>
